G75*
G70*
%OFA0B0*%
%FSLAX24Y24*%
%IPPOS*%
%LPD*%
%AMOC8*
5,1,8,0,0,1.08239X$1,22.5*
%
%ADD10C,0.0010*%
D10*
X001567Y004087D02*
X002367Y004887D01*
X002367Y004087D01*
X001567Y004887D01*
X001567Y004087D01*
X008087Y004087D02*
X008887Y004887D01*
X008887Y004087D01*
X008087Y004887D01*
X008087Y004087D01*
X014587Y004087D02*
X015387Y004887D01*
X015387Y004087D01*
X014587Y004887D01*
X014587Y004087D01*
X021087Y004087D02*
X021887Y004887D01*
X021887Y004087D01*
X021087Y004887D01*
X021087Y004087D01*
X024587Y003087D02*
X025387Y003887D01*
X025387Y003087D01*
X024587Y003887D01*
X024587Y003087D01*
X026097Y003487D02*
X026099Y003526D01*
X026105Y003564D01*
X026114Y003602D01*
X026128Y003638D01*
X026144Y003674D01*
X026165Y003707D01*
X026188Y003738D01*
X026215Y003766D01*
X026244Y003792D01*
X026275Y003815D01*
X026309Y003834D01*
X026345Y003850D01*
X026381Y003862D01*
X026419Y003871D01*
X026458Y003876D01*
X026497Y003877D01*
X026535Y003874D01*
X026574Y003867D01*
X026611Y003857D01*
X026647Y003842D01*
X026682Y003825D01*
X026715Y003804D01*
X026745Y003779D01*
X026773Y003752D01*
X026798Y003722D01*
X026820Y003690D01*
X026838Y003656D01*
X026853Y003620D01*
X026865Y003583D01*
X026873Y003545D01*
X026877Y003506D01*
X026877Y003468D01*
X026873Y003429D01*
X026865Y003391D01*
X026853Y003354D01*
X026838Y003318D01*
X026820Y003284D01*
X026798Y003252D01*
X026773Y003222D01*
X026745Y003195D01*
X026715Y003170D01*
X026682Y003149D01*
X026647Y003132D01*
X026611Y003117D01*
X026574Y003107D01*
X026535Y003100D01*
X026497Y003097D01*
X026458Y003098D01*
X026419Y003103D01*
X026381Y003112D01*
X026345Y003124D01*
X026309Y003140D01*
X026275Y003159D01*
X026244Y003182D01*
X026215Y003208D01*
X026188Y003236D01*
X026165Y003267D01*
X026144Y003300D01*
X026128Y003336D01*
X026114Y003372D01*
X026105Y003410D01*
X026099Y003448D01*
X026097Y003487D01*
X026087Y003087D02*
X026887Y003887D01*
X026097Y004487D02*
X026099Y004526D01*
X026105Y004564D01*
X026114Y004602D01*
X026128Y004638D01*
X026144Y004674D01*
X026165Y004707D01*
X026188Y004738D01*
X026215Y004766D01*
X026244Y004792D01*
X026275Y004815D01*
X026309Y004834D01*
X026345Y004850D01*
X026381Y004862D01*
X026419Y004871D01*
X026458Y004876D01*
X026497Y004877D01*
X026535Y004874D01*
X026574Y004867D01*
X026611Y004857D01*
X026647Y004842D01*
X026682Y004825D01*
X026715Y004804D01*
X026745Y004779D01*
X026773Y004752D01*
X026798Y004722D01*
X026820Y004690D01*
X026838Y004656D01*
X026853Y004620D01*
X026865Y004583D01*
X026873Y004545D01*
X026877Y004506D01*
X026877Y004468D01*
X026873Y004429D01*
X026865Y004391D01*
X026853Y004354D01*
X026838Y004318D01*
X026820Y004284D01*
X026798Y004252D01*
X026773Y004222D01*
X026745Y004195D01*
X026715Y004170D01*
X026682Y004149D01*
X026647Y004132D01*
X026611Y004117D01*
X026574Y004107D01*
X026535Y004100D01*
X026497Y004097D01*
X026458Y004098D01*
X026419Y004103D01*
X026381Y004112D01*
X026345Y004124D01*
X026309Y004140D01*
X026275Y004159D01*
X026244Y004182D01*
X026215Y004208D01*
X026188Y004236D01*
X026165Y004267D01*
X026144Y004300D01*
X026128Y004336D01*
X026114Y004372D01*
X026105Y004410D01*
X026099Y004448D01*
X026097Y004487D01*
X026087Y004087D02*
X026887Y004887D01*
X026097Y002487D02*
X026099Y002526D01*
X026105Y002564D01*
X026114Y002602D01*
X026128Y002638D01*
X026144Y002674D01*
X026165Y002707D01*
X026188Y002738D01*
X026215Y002766D01*
X026244Y002792D01*
X026275Y002815D01*
X026309Y002834D01*
X026345Y002850D01*
X026381Y002862D01*
X026419Y002871D01*
X026458Y002876D01*
X026497Y002877D01*
X026535Y002874D01*
X026574Y002867D01*
X026611Y002857D01*
X026647Y002842D01*
X026682Y002825D01*
X026715Y002804D01*
X026745Y002779D01*
X026773Y002752D01*
X026798Y002722D01*
X026820Y002690D01*
X026838Y002656D01*
X026853Y002620D01*
X026865Y002583D01*
X026873Y002545D01*
X026877Y002506D01*
X026877Y002468D01*
X026873Y002429D01*
X026865Y002391D01*
X026853Y002354D01*
X026838Y002318D01*
X026820Y002284D01*
X026798Y002252D01*
X026773Y002222D01*
X026745Y002195D01*
X026715Y002170D01*
X026682Y002149D01*
X026647Y002132D01*
X026611Y002117D01*
X026574Y002107D01*
X026535Y002100D01*
X026497Y002097D01*
X026458Y002098D01*
X026419Y002103D01*
X026381Y002112D01*
X026345Y002124D01*
X026309Y002140D01*
X026275Y002159D01*
X026244Y002182D01*
X026215Y002208D01*
X026188Y002236D01*
X026165Y002267D01*
X026144Y002300D01*
X026128Y002336D01*
X026114Y002372D01*
X026105Y002410D01*
X026099Y002448D01*
X026097Y002487D01*
X026087Y002087D02*
X026887Y002887D01*
X020827Y009027D02*
X021627Y009827D01*
X021627Y009027D01*
X020827Y009827D01*
X020827Y009027D01*
X015387Y009827D02*
X014587Y009027D01*
X015387Y009027D02*
X015387Y009827D01*
X015387Y009027D02*
X014587Y009827D01*
X014587Y009027D01*
X008887Y009827D02*
X008087Y009027D01*
X008887Y009027D02*
X008887Y009827D01*
X008887Y009027D02*
X008087Y009827D01*
X008087Y009027D01*
X002217Y009827D02*
X001417Y009027D01*
X002217Y009027D02*
X002217Y009827D01*
X002217Y009027D02*
X001417Y009827D01*
X001417Y009027D01*
X001097Y012487D02*
X001099Y012526D01*
X001105Y012564D01*
X001114Y012602D01*
X001128Y012638D01*
X001144Y012674D01*
X001165Y012707D01*
X001188Y012738D01*
X001215Y012766D01*
X001244Y012792D01*
X001275Y012815D01*
X001309Y012834D01*
X001345Y012850D01*
X001381Y012862D01*
X001419Y012871D01*
X001458Y012876D01*
X001497Y012877D01*
X001535Y012874D01*
X001574Y012867D01*
X001611Y012857D01*
X001647Y012842D01*
X001682Y012825D01*
X001715Y012804D01*
X001745Y012779D01*
X001773Y012752D01*
X001798Y012722D01*
X001820Y012690D01*
X001838Y012656D01*
X001853Y012620D01*
X001865Y012583D01*
X001873Y012545D01*
X001877Y012506D01*
X001877Y012468D01*
X001873Y012429D01*
X001865Y012391D01*
X001853Y012354D01*
X001838Y012318D01*
X001820Y012284D01*
X001798Y012252D01*
X001773Y012222D01*
X001745Y012195D01*
X001715Y012170D01*
X001682Y012149D01*
X001647Y012132D01*
X001611Y012117D01*
X001574Y012107D01*
X001535Y012100D01*
X001497Y012097D01*
X001458Y012098D01*
X001419Y012103D01*
X001381Y012112D01*
X001345Y012124D01*
X001309Y012140D01*
X001275Y012159D01*
X001244Y012182D01*
X001215Y012208D01*
X001188Y012236D01*
X001165Y012267D01*
X001144Y012300D01*
X001128Y012336D01*
X001114Y012372D01*
X001105Y012410D01*
X001099Y012448D01*
X001097Y012487D01*
X001087Y012087D02*
X001887Y012887D01*
X001097Y013487D02*
X001099Y013526D01*
X001105Y013564D01*
X001114Y013602D01*
X001128Y013638D01*
X001144Y013674D01*
X001165Y013707D01*
X001188Y013738D01*
X001215Y013766D01*
X001244Y013792D01*
X001275Y013815D01*
X001309Y013834D01*
X001345Y013850D01*
X001381Y013862D01*
X001419Y013871D01*
X001458Y013876D01*
X001497Y013877D01*
X001535Y013874D01*
X001574Y013867D01*
X001611Y013857D01*
X001647Y013842D01*
X001682Y013825D01*
X001715Y013804D01*
X001745Y013779D01*
X001773Y013752D01*
X001798Y013722D01*
X001820Y013690D01*
X001838Y013656D01*
X001853Y013620D01*
X001865Y013583D01*
X001873Y013545D01*
X001877Y013506D01*
X001877Y013468D01*
X001873Y013429D01*
X001865Y013391D01*
X001853Y013354D01*
X001838Y013318D01*
X001820Y013284D01*
X001798Y013252D01*
X001773Y013222D01*
X001745Y013195D01*
X001715Y013170D01*
X001682Y013149D01*
X001647Y013132D01*
X001611Y013117D01*
X001574Y013107D01*
X001535Y013100D01*
X001497Y013097D01*
X001458Y013098D01*
X001419Y013103D01*
X001381Y013112D01*
X001345Y013124D01*
X001309Y013140D01*
X001275Y013159D01*
X001244Y013182D01*
X001215Y013208D01*
X001188Y013236D01*
X001165Y013267D01*
X001144Y013300D01*
X001128Y013336D01*
X001114Y013372D01*
X001105Y013410D01*
X001099Y013448D01*
X001097Y013487D01*
X001087Y013087D02*
X001887Y013887D01*
X001097Y014487D02*
X001099Y014526D01*
X001105Y014564D01*
X001114Y014602D01*
X001128Y014638D01*
X001144Y014674D01*
X001165Y014707D01*
X001188Y014738D01*
X001215Y014766D01*
X001244Y014792D01*
X001275Y014815D01*
X001309Y014834D01*
X001345Y014850D01*
X001381Y014862D01*
X001419Y014871D01*
X001458Y014876D01*
X001497Y014877D01*
X001535Y014874D01*
X001574Y014867D01*
X001611Y014857D01*
X001647Y014842D01*
X001682Y014825D01*
X001715Y014804D01*
X001745Y014779D01*
X001773Y014752D01*
X001798Y014722D01*
X001820Y014690D01*
X001838Y014656D01*
X001853Y014620D01*
X001865Y014583D01*
X001873Y014545D01*
X001877Y014506D01*
X001877Y014468D01*
X001873Y014429D01*
X001865Y014391D01*
X001853Y014354D01*
X001838Y014318D01*
X001820Y014284D01*
X001798Y014252D01*
X001773Y014222D01*
X001745Y014195D01*
X001715Y014170D01*
X001682Y014149D01*
X001647Y014132D01*
X001611Y014117D01*
X001574Y014107D01*
X001535Y014100D01*
X001497Y014097D01*
X001458Y014098D01*
X001419Y014103D01*
X001381Y014112D01*
X001345Y014124D01*
X001309Y014140D01*
X001275Y014159D01*
X001244Y014182D01*
X001215Y014208D01*
X001188Y014236D01*
X001165Y014267D01*
X001144Y014300D01*
X001128Y014336D01*
X001114Y014372D01*
X001105Y014410D01*
X001099Y014448D01*
X001097Y014487D01*
X001087Y014087D02*
X001887Y014887D01*
X008077Y014047D02*
X008877Y014847D01*
X008877Y014047D01*
X008077Y014847D01*
X008077Y014047D01*
X008867Y013887D02*
X008067Y013087D01*
X008867Y013087D02*
X008867Y013887D01*
X008867Y013087D02*
X008067Y013887D01*
X008067Y013087D01*
X014587Y014037D02*
X015387Y014837D01*
X015387Y014037D01*
X014587Y014837D01*
X014587Y014037D01*
X020587Y014037D02*
X021387Y014837D01*
X021387Y014037D01*
X020587Y014837D01*
X020587Y014037D01*
M02*
