G75*
G70*
%OFA0B0*%
%FSLAX24Y24*%
%IPPOS*%
%LPD*%
%AMOC8*
5,1,8,0,0,1.08239X$1,22.5*
%
%ADD10C,0.0740*%
%ADD11C,0.0591*%
%ADD12C,0.0660*%
%ADD13C,0.0160*%
D10*
X001487Y012487D03*
X001487Y013487D03*
X001487Y014487D03*
X026487Y004487D03*
X026487Y003487D03*
X026487Y002487D03*
D11*
X001967Y004487D03*
X008487Y004487D03*
X014987Y004487D03*
X021487Y004487D03*
X024987Y003487D03*
X021227Y009427D03*
X014987Y009427D03*
X008487Y009427D03*
X001817Y009427D03*
X008467Y013487D03*
X008477Y014447D03*
X014987Y014437D03*
X020987Y014437D03*
D12*
X014987Y014437D01*
X006497Y014437D01*
X006487Y014427D01*
X001547Y014427D01*
X001487Y014487D01*
X006487Y014427D02*
X008477Y014447D01*
X008487Y009427D02*
X001817Y009427D01*
X008487Y009427D02*
X014987Y009427D01*
X021227Y009427D01*
X026487Y009427D01*
X026487Y014437D01*
X020987Y014437D01*
X026487Y009427D02*
X026487Y004487D01*
X021487Y004487D01*
X014987Y004487D01*
X008487Y004487D01*
X001967Y004487D01*
X001987Y004487D01*
D13*
X001487Y013487D02*
X008467Y013487D01*
X024987Y003487D02*
X026487Y003487D01*
M02*
