G75*
G70*
%OFA0B0*%
%FSLAX24Y24*%
%IPPOS*%
%LPD*%
%AMOC8*
5,1,8,0,0,1.08239X$1,22.5*
%
%ADD10C,0.0000*%
%ADD11C,0.0220*%
%ADD12C,0.0010*%
%ADD13C,0.0080*%
%ADD14C,0.0020*%
%ADD15C,0.0050*%
D10*
X000487Y001487D02*
X000487Y015823D01*
X027857Y015823D01*
X027857Y001487D01*
X000487Y001487D01*
D11*
X002975Y003487D02*
X002999Y003487D01*
X009475Y003487D02*
X009499Y003487D01*
X015975Y003487D02*
X015999Y003487D01*
X021975Y003487D02*
X021999Y003487D01*
X021975Y008487D02*
X021999Y008487D01*
X015999Y008487D02*
X015975Y008487D01*
X009499Y008487D02*
X009475Y008487D01*
X002999Y008487D02*
X002975Y008487D01*
X009495Y013347D02*
X009519Y013347D01*
X015905Y013407D02*
X015929Y013407D01*
X021985Y013377D02*
X022009Y013377D01*
X002999Y013417D02*
X002975Y013417D01*
D12*
X002682Y013320D02*
X002682Y013220D01*
X002682Y013270D02*
X002532Y013270D01*
X002582Y013220D01*
X002557Y013172D02*
X002532Y013147D01*
X002532Y013097D01*
X002557Y013072D01*
X002657Y013072D01*
X002682Y013097D01*
X002682Y013147D01*
X002657Y013172D01*
X009052Y013175D02*
X009077Y013150D01*
X009052Y013175D02*
X009052Y013225D01*
X009077Y013250D01*
X009102Y013250D01*
X009202Y013150D01*
X009202Y013250D01*
X009177Y013102D02*
X009202Y013077D01*
X009202Y013027D01*
X009177Y013002D01*
X009077Y013002D01*
X009052Y013027D01*
X009052Y013077D01*
X009077Y013102D01*
X015462Y013087D02*
X015487Y013062D01*
X015587Y013062D01*
X015612Y013087D01*
X015612Y013137D01*
X015587Y013162D01*
X015587Y013210D02*
X015612Y013235D01*
X015612Y013285D01*
X015587Y013310D01*
X015562Y013310D01*
X015537Y013285D01*
X015537Y013260D01*
X015537Y013285D02*
X015512Y013310D01*
X015487Y013310D01*
X015462Y013285D01*
X015462Y013235D01*
X015487Y013210D01*
X015487Y013162D02*
X015462Y013137D01*
X015462Y013087D01*
X021542Y013107D02*
X021542Y013057D01*
X021567Y013032D01*
X021667Y013032D01*
X021692Y013057D01*
X021692Y013107D01*
X021667Y013132D01*
X021617Y013180D02*
X021617Y013280D01*
X021692Y013255D02*
X021542Y013255D01*
X021617Y013180D01*
X021567Y013132D02*
X021542Y013107D01*
X021532Y008390D02*
X021532Y008290D01*
X021607Y008290D01*
X021582Y008340D01*
X021582Y008365D01*
X021607Y008390D01*
X021657Y008390D01*
X021682Y008365D01*
X021682Y008315D01*
X021657Y008290D01*
X021657Y008242D02*
X021682Y008217D01*
X021682Y008167D01*
X021657Y008142D01*
X021557Y008142D01*
X021532Y008167D01*
X021532Y008217D01*
X021557Y008242D01*
X015682Y008217D02*
X015657Y008242D01*
X015682Y008217D02*
X015682Y008167D01*
X015657Y008142D01*
X015557Y008142D01*
X015532Y008167D01*
X015532Y008217D01*
X015557Y008242D01*
X015607Y008290D02*
X015607Y008365D01*
X015632Y008390D01*
X015657Y008390D01*
X015682Y008365D01*
X015682Y008315D01*
X015657Y008290D01*
X015607Y008290D01*
X015557Y008340D01*
X015532Y008390D01*
X009182Y008290D02*
X009157Y008290D01*
X009057Y008390D01*
X009032Y008390D01*
X009032Y008290D01*
X009057Y008242D02*
X009032Y008217D01*
X009032Y008167D01*
X009057Y008142D01*
X009157Y008142D01*
X009182Y008167D01*
X009182Y008217D01*
X009157Y008242D01*
X002682Y008217D02*
X002657Y008242D01*
X002682Y008217D02*
X002682Y008167D01*
X002657Y008142D01*
X002557Y008142D01*
X002532Y008167D01*
X002532Y008217D01*
X002557Y008242D01*
X002557Y008290D02*
X002582Y008290D01*
X002607Y008315D01*
X002607Y008365D01*
X002632Y008390D01*
X002657Y008390D01*
X002682Y008365D01*
X002682Y008315D01*
X002657Y008290D01*
X002632Y008290D01*
X002607Y008315D01*
X002607Y008365D02*
X002582Y008390D01*
X002557Y008390D01*
X002532Y008365D01*
X002532Y008315D01*
X002557Y008290D01*
X009032Y003512D02*
X009057Y003537D01*
X009157Y003437D01*
X009182Y003462D01*
X009182Y003512D01*
X009157Y003537D01*
X009057Y003537D01*
X009032Y003512D02*
X009032Y003462D01*
X009057Y003437D01*
X009157Y003437D01*
X009182Y003390D02*
X009182Y003290D01*
X009182Y003340D02*
X009032Y003340D01*
X009082Y003290D01*
X009057Y003242D02*
X009032Y003217D01*
X009032Y003167D01*
X009057Y003142D01*
X009157Y003142D01*
X009182Y003167D01*
X009182Y003217D01*
X009157Y003242D01*
X015532Y003217D02*
X015532Y003167D01*
X015557Y003142D01*
X015657Y003142D01*
X015682Y003167D01*
X015682Y003217D01*
X015657Y003242D01*
X015682Y003290D02*
X015682Y003390D01*
X015682Y003437D02*
X015682Y003537D01*
X015682Y003487D02*
X015532Y003487D01*
X015582Y003437D01*
X015532Y003340D02*
X015682Y003340D01*
X015582Y003290D02*
X015532Y003340D01*
X015557Y003242D02*
X015532Y003217D01*
X021532Y003217D02*
X021532Y003167D01*
X021557Y003142D01*
X021657Y003142D01*
X021682Y003167D01*
X021682Y003217D01*
X021657Y003242D01*
X021682Y003290D02*
X021682Y003390D01*
X021682Y003437D02*
X021582Y003537D01*
X021557Y003537D01*
X021532Y003512D01*
X021532Y003462D01*
X021557Y003437D01*
X021532Y003340D02*
X021682Y003340D01*
X021682Y003437D02*
X021682Y003537D01*
X021532Y003340D02*
X021582Y003290D01*
X021557Y003242D02*
X021532Y003217D01*
X002682Y003167D02*
X002682Y003217D01*
X002657Y003242D01*
X002657Y003290D02*
X002682Y003315D01*
X002682Y003365D01*
X002657Y003390D01*
X002557Y003390D01*
X002532Y003365D01*
X002532Y003315D01*
X002557Y003290D01*
X002582Y003290D01*
X002607Y003315D01*
X002607Y003390D01*
X002557Y003242D02*
X002532Y003217D01*
X002532Y003167D01*
X002557Y003142D01*
X002657Y003142D01*
X002682Y003167D01*
D13*
X003502Y003094D02*
X003502Y003881D01*
X004337Y003887D02*
X004337Y003537D01*
X004637Y003537D01*
X004637Y003887D01*
X004337Y003887D01*
X004437Y003387D02*
X004437Y003287D01*
X004537Y003287D01*
X004537Y003387D01*
X004437Y003387D01*
X005186Y003763D02*
X005188Y003781D01*
X005194Y003799D01*
X005203Y003815D01*
X005215Y003828D01*
X005230Y003839D01*
X005247Y003847D01*
X005265Y003851D01*
X005283Y003851D01*
X005301Y003847D01*
X005318Y003839D01*
X005333Y003828D01*
X005345Y003815D01*
X005354Y003799D01*
X005360Y003781D01*
X005362Y003763D01*
X005360Y003745D01*
X005354Y003727D01*
X005345Y003711D01*
X005333Y003698D01*
X005318Y003687D01*
X005301Y003679D01*
X005283Y003675D01*
X005265Y003675D01*
X005247Y003679D01*
X005230Y003687D01*
X005215Y003698D01*
X005203Y003711D01*
X005194Y003727D01*
X005188Y003745D01*
X005186Y003763D01*
X005471Y003881D02*
X005471Y003094D01*
X004841Y002503D02*
X004762Y002503D01*
X004211Y002503D02*
X004132Y002503D01*
X004132Y004471D02*
X004211Y004471D01*
X004762Y004471D02*
X004841Y004471D01*
X010002Y003881D02*
X010002Y003094D01*
X010837Y003537D02*
X010837Y003887D01*
X011137Y003887D01*
X011137Y003537D01*
X010837Y003537D01*
X010937Y003387D02*
X010937Y003287D01*
X011037Y003287D01*
X011037Y003387D01*
X010937Y003387D01*
X011686Y003763D02*
X011688Y003781D01*
X011694Y003799D01*
X011703Y003815D01*
X011715Y003828D01*
X011730Y003839D01*
X011747Y003847D01*
X011765Y003851D01*
X011783Y003851D01*
X011801Y003847D01*
X011818Y003839D01*
X011833Y003828D01*
X011845Y003815D01*
X011854Y003799D01*
X011860Y003781D01*
X011862Y003763D01*
X011860Y003745D01*
X011854Y003727D01*
X011845Y003711D01*
X011833Y003698D01*
X011818Y003687D01*
X011801Y003679D01*
X011783Y003675D01*
X011765Y003675D01*
X011747Y003679D01*
X011730Y003687D01*
X011715Y003698D01*
X011703Y003711D01*
X011694Y003727D01*
X011688Y003745D01*
X011686Y003763D01*
X011971Y003881D02*
X011971Y003094D01*
X011341Y002503D02*
X011262Y002503D01*
X010711Y002503D02*
X010632Y002503D01*
X010632Y004471D02*
X010711Y004471D01*
X011262Y004471D02*
X011341Y004471D01*
X016502Y003881D02*
X016502Y003094D01*
X017337Y003537D02*
X017337Y003887D01*
X017637Y003887D01*
X017637Y003537D01*
X017337Y003537D01*
X017437Y003387D02*
X017437Y003287D01*
X017537Y003287D01*
X017537Y003387D01*
X017437Y003387D01*
X018186Y003763D02*
X018188Y003781D01*
X018194Y003799D01*
X018203Y003815D01*
X018215Y003828D01*
X018230Y003839D01*
X018247Y003847D01*
X018265Y003851D01*
X018283Y003851D01*
X018301Y003847D01*
X018318Y003839D01*
X018333Y003828D01*
X018345Y003815D01*
X018354Y003799D01*
X018360Y003781D01*
X018362Y003763D01*
X018360Y003745D01*
X018354Y003727D01*
X018345Y003711D01*
X018333Y003698D01*
X018318Y003687D01*
X018301Y003679D01*
X018283Y003675D01*
X018265Y003675D01*
X018247Y003679D01*
X018230Y003687D01*
X018215Y003698D01*
X018203Y003711D01*
X018194Y003727D01*
X018188Y003745D01*
X018186Y003763D01*
X018471Y003881D02*
X018471Y003094D01*
X017841Y002503D02*
X017762Y002503D01*
X017211Y002503D02*
X017132Y002503D01*
X017132Y004471D02*
X017211Y004471D01*
X017762Y004471D02*
X017841Y004471D01*
X022502Y003881D02*
X022502Y003094D01*
X023337Y003537D02*
X023337Y003887D01*
X023637Y003887D01*
X023637Y003537D01*
X023337Y003537D01*
X023437Y003387D02*
X023437Y003287D01*
X023537Y003287D01*
X023537Y003387D01*
X023437Y003387D01*
X024186Y003763D02*
X024188Y003781D01*
X024194Y003799D01*
X024203Y003815D01*
X024215Y003828D01*
X024230Y003839D01*
X024247Y003847D01*
X024265Y003851D01*
X024283Y003851D01*
X024301Y003847D01*
X024318Y003839D01*
X024333Y003828D01*
X024345Y003815D01*
X024354Y003799D01*
X024360Y003781D01*
X024362Y003763D01*
X024360Y003745D01*
X024354Y003727D01*
X024345Y003711D01*
X024333Y003698D01*
X024318Y003687D01*
X024301Y003679D01*
X024283Y003675D01*
X024265Y003675D01*
X024247Y003679D01*
X024230Y003687D01*
X024215Y003698D01*
X024203Y003711D01*
X024194Y003727D01*
X024188Y003745D01*
X024186Y003763D01*
X024471Y003881D02*
X024471Y003094D01*
X023841Y002503D02*
X023762Y002503D01*
X023211Y002503D02*
X023132Y002503D01*
X025987Y002737D02*
X025987Y002237D01*
X026237Y001987D01*
X026737Y001987D01*
X026987Y002237D01*
X026987Y002737D01*
X026737Y002987D01*
X026987Y003237D01*
X026987Y003737D01*
X026737Y003987D01*
X026987Y004237D01*
X026987Y004737D01*
X026737Y004987D01*
X026237Y004987D01*
X025987Y004737D01*
X025987Y004237D01*
X026237Y003987D01*
X025987Y003737D01*
X025987Y003237D01*
X026237Y002987D01*
X025987Y002737D01*
X023841Y004471D02*
X023762Y004471D01*
X023211Y004471D02*
X023132Y004471D01*
X023132Y007503D02*
X023211Y007503D01*
X023762Y007503D02*
X023841Y007503D01*
X024471Y008094D02*
X024471Y008881D01*
X024186Y008763D02*
X024188Y008781D01*
X024194Y008799D01*
X024203Y008815D01*
X024215Y008828D01*
X024230Y008839D01*
X024247Y008847D01*
X024265Y008851D01*
X024283Y008851D01*
X024301Y008847D01*
X024318Y008839D01*
X024333Y008828D01*
X024345Y008815D01*
X024354Y008799D01*
X024360Y008781D01*
X024362Y008763D01*
X024360Y008745D01*
X024354Y008727D01*
X024345Y008711D01*
X024333Y008698D01*
X024318Y008687D01*
X024301Y008679D01*
X024283Y008675D01*
X024265Y008675D01*
X024247Y008679D01*
X024230Y008687D01*
X024215Y008698D01*
X024203Y008711D01*
X024194Y008727D01*
X024188Y008745D01*
X024186Y008763D01*
X023637Y008887D02*
X023637Y008537D01*
X023337Y008537D01*
X023337Y008887D01*
X023637Y008887D01*
X023537Y008387D02*
X023537Y008287D01*
X023437Y008287D01*
X023437Y008387D01*
X023537Y008387D01*
X022502Y008094D02*
X022502Y008881D01*
X023132Y009471D02*
X023211Y009471D01*
X023762Y009471D02*
X023841Y009471D01*
X023841Y012503D02*
X023762Y012503D01*
X023211Y012503D02*
X023132Y012503D01*
X022502Y013094D02*
X022502Y013881D01*
X023337Y013887D02*
X023337Y013537D01*
X023637Y013537D01*
X023637Y013887D01*
X023337Y013887D01*
X023437Y013387D02*
X023437Y013287D01*
X023537Y013287D01*
X023537Y013387D01*
X023437Y013387D01*
X024186Y013763D02*
X024188Y013781D01*
X024194Y013799D01*
X024203Y013815D01*
X024215Y013828D01*
X024230Y013839D01*
X024247Y013847D01*
X024265Y013851D01*
X024283Y013851D01*
X024301Y013847D01*
X024318Y013839D01*
X024333Y013828D01*
X024345Y013815D01*
X024354Y013799D01*
X024360Y013781D01*
X024362Y013763D01*
X024360Y013745D01*
X024354Y013727D01*
X024345Y013711D01*
X024333Y013698D01*
X024318Y013687D01*
X024301Y013679D01*
X024283Y013675D01*
X024265Y013675D01*
X024247Y013679D01*
X024230Y013687D01*
X024215Y013698D01*
X024203Y013711D01*
X024194Y013727D01*
X024188Y013745D01*
X024186Y013763D01*
X024471Y013881D02*
X024471Y013094D01*
X023841Y014471D02*
X023762Y014471D01*
X023211Y014471D02*
X023132Y014471D01*
X018471Y013881D02*
X018471Y013094D01*
X017637Y013537D02*
X017337Y013537D01*
X017337Y013887D01*
X017637Y013887D01*
X017637Y013537D01*
X017537Y013387D02*
X017537Y013287D01*
X017437Y013287D01*
X017437Y013387D01*
X017537Y013387D01*
X018186Y013763D02*
X018188Y013781D01*
X018194Y013799D01*
X018203Y013815D01*
X018215Y013828D01*
X018230Y013839D01*
X018247Y013847D01*
X018265Y013851D01*
X018283Y013851D01*
X018301Y013847D01*
X018318Y013839D01*
X018333Y013828D01*
X018345Y013815D01*
X018354Y013799D01*
X018360Y013781D01*
X018362Y013763D01*
X018360Y013745D01*
X018354Y013727D01*
X018345Y013711D01*
X018333Y013698D01*
X018318Y013687D01*
X018301Y013679D01*
X018283Y013675D01*
X018265Y013675D01*
X018247Y013679D01*
X018230Y013687D01*
X018215Y013698D01*
X018203Y013711D01*
X018194Y013727D01*
X018188Y013745D01*
X018186Y013763D01*
X017841Y014471D02*
X017762Y014471D01*
X017211Y014471D02*
X017132Y014471D01*
X016502Y013881D02*
X016502Y013094D01*
X017132Y012503D02*
X017211Y012503D01*
X017762Y012503D02*
X017841Y012503D01*
X017841Y009471D02*
X017762Y009471D01*
X017211Y009471D02*
X017132Y009471D01*
X017337Y008887D02*
X017337Y008537D01*
X017637Y008537D01*
X017637Y008887D01*
X017337Y008887D01*
X017437Y008387D02*
X017437Y008287D01*
X017537Y008287D01*
X017537Y008387D01*
X017437Y008387D01*
X018186Y008763D02*
X018188Y008781D01*
X018194Y008799D01*
X018203Y008815D01*
X018215Y008828D01*
X018230Y008839D01*
X018247Y008847D01*
X018265Y008851D01*
X018283Y008851D01*
X018301Y008847D01*
X018318Y008839D01*
X018333Y008828D01*
X018345Y008815D01*
X018354Y008799D01*
X018360Y008781D01*
X018362Y008763D01*
X018360Y008745D01*
X018354Y008727D01*
X018345Y008711D01*
X018333Y008698D01*
X018318Y008687D01*
X018301Y008679D01*
X018283Y008675D01*
X018265Y008675D01*
X018247Y008679D01*
X018230Y008687D01*
X018215Y008698D01*
X018203Y008711D01*
X018194Y008727D01*
X018188Y008745D01*
X018186Y008763D01*
X018471Y008881D02*
X018471Y008094D01*
X017841Y007503D02*
X017762Y007503D01*
X017211Y007503D02*
X017132Y007503D01*
X016502Y008094D02*
X016502Y008881D01*
X011971Y008881D02*
X011971Y008094D01*
X011341Y007503D02*
X011262Y007503D01*
X010711Y007503D02*
X010632Y007503D01*
X010002Y008094D02*
X010002Y008881D01*
X010837Y008887D02*
X010837Y008537D01*
X011137Y008537D01*
X011137Y008887D01*
X010837Y008887D01*
X010937Y008387D02*
X010937Y008287D01*
X011037Y008287D01*
X011037Y008387D01*
X010937Y008387D01*
X011686Y008763D02*
X011688Y008781D01*
X011694Y008799D01*
X011703Y008815D01*
X011715Y008828D01*
X011730Y008839D01*
X011747Y008847D01*
X011765Y008851D01*
X011783Y008851D01*
X011801Y008847D01*
X011818Y008839D01*
X011833Y008828D01*
X011845Y008815D01*
X011854Y008799D01*
X011860Y008781D01*
X011862Y008763D01*
X011860Y008745D01*
X011854Y008727D01*
X011845Y008711D01*
X011833Y008698D01*
X011818Y008687D01*
X011801Y008679D01*
X011783Y008675D01*
X011765Y008675D01*
X011747Y008679D01*
X011730Y008687D01*
X011715Y008698D01*
X011703Y008711D01*
X011694Y008727D01*
X011688Y008745D01*
X011686Y008763D01*
X011341Y009471D02*
X011262Y009471D01*
X010711Y009471D02*
X010632Y009471D01*
X005471Y008881D02*
X005471Y008094D01*
X004841Y007503D02*
X004762Y007503D01*
X004211Y007503D02*
X004132Y007503D01*
X003502Y008094D02*
X003502Y008881D01*
X004337Y008887D02*
X004337Y008537D01*
X004637Y008537D01*
X004637Y008887D01*
X004337Y008887D01*
X004437Y008387D02*
X004437Y008287D01*
X004537Y008287D01*
X004537Y008387D01*
X004437Y008387D01*
X005186Y008763D02*
X005188Y008781D01*
X005194Y008799D01*
X005203Y008815D01*
X005215Y008828D01*
X005230Y008839D01*
X005247Y008847D01*
X005265Y008851D01*
X005283Y008851D01*
X005301Y008847D01*
X005318Y008839D01*
X005333Y008828D01*
X005345Y008815D01*
X005354Y008799D01*
X005360Y008781D01*
X005362Y008763D01*
X005360Y008745D01*
X005354Y008727D01*
X005345Y008711D01*
X005333Y008698D01*
X005318Y008687D01*
X005301Y008679D01*
X005283Y008675D01*
X005265Y008675D01*
X005247Y008679D01*
X005230Y008687D01*
X005215Y008698D01*
X005203Y008711D01*
X005194Y008727D01*
X005188Y008745D01*
X005186Y008763D01*
X004841Y009471D02*
X004762Y009471D01*
X004211Y009471D02*
X004132Y009471D01*
X001737Y011987D02*
X001237Y011987D01*
X000987Y012237D01*
X000987Y012737D01*
X001237Y012987D01*
X000987Y013237D01*
X000987Y013737D01*
X001237Y013987D01*
X000987Y014237D01*
X000987Y014737D01*
X001237Y014987D01*
X001737Y014987D01*
X001987Y014737D01*
X001987Y014237D01*
X001737Y013987D01*
X001987Y013737D01*
X001987Y013237D01*
X001737Y012987D01*
X001987Y012737D01*
X001987Y012237D01*
X001737Y011987D01*
X003502Y013094D02*
X003502Y013881D01*
X004337Y013887D02*
X004337Y013537D01*
X004637Y013537D01*
X004637Y013887D01*
X004337Y013887D01*
X004437Y013387D02*
X004437Y013287D01*
X004537Y013287D01*
X004537Y013387D01*
X004437Y013387D01*
X005186Y013763D02*
X005188Y013781D01*
X005194Y013799D01*
X005203Y013815D01*
X005215Y013828D01*
X005230Y013839D01*
X005247Y013847D01*
X005265Y013851D01*
X005283Y013851D01*
X005301Y013847D01*
X005318Y013839D01*
X005333Y013828D01*
X005345Y013815D01*
X005354Y013799D01*
X005360Y013781D01*
X005362Y013763D01*
X005360Y013745D01*
X005354Y013727D01*
X005345Y013711D01*
X005333Y013698D01*
X005318Y013687D01*
X005301Y013679D01*
X005283Y013675D01*
X005265Y013675D01*
X005247Y013679D01*
X005230Y013687D01*
X005215Y013698D01*
X005203Y013711D01*
X005194Y013727D01*
X005188Y013745D01*
X005186Y013763D01*
X005471Y013881D02*
X005471Y013094D01*
X004841Y012503D02*
X004762Y012503D01*
X004211Y012503D02*
X004132Y012503D01*
X004132Y014471D02*
X004211Y014471D01*
X004762Y014471D02*
X004841Y014471D01*
X010002Y013881D02*
X010002Y013094D01*
X010837Y013537D02*
X010837Y013887D01*
X011137Y013887D01*
X011137Y013537D01*
X010837Y013537D01*
X010937Y013387D02*
X010937Y013287D01*
X011037Y013287D01*
X011037Y013387D01*
X010937Y013387D01*
X011686Y013763D02*
X011688Y013781D01*
X011694Y013799D01*
X011703Y013815D01*
X011715Y013828D01*
X011730Y013839D01*
X011747Y013847D01*
X011765Y013851D01*
X011783Y013851D01*
X011801Y013847D01*
X011818Y013839D01*
X011833Y013828D01*
X011845Y013815D01*
X011854Y013799D01*
X011860Y013781D01*
X011862Y013763D01*
X011860Y013745D01*
X011854Y013727D01*
X011845Y013711D01*
X011833Y013698D01*
X011818Y013687D01*
X011801Y013679D01*
X011783Y013675D01*
X011765Y013675D01*
X011747Y013679D01*
X011730Y013687D01*
X011715Y013698D01*
X011703Y013711D01*
X011694Y013727D01*
X011688Y013745D01*
X011686Y013763D01*
X011971Y013881D02*
X011971Y013094D01*
X011341Y012503D02*
X011262Y012503D01*
X010711Y012503D02*
X010632Y012503D01*
X010632Y014471D02*
X010711Y014471D01*
X011262Y014471D02*
X011341Y014471D01*
D14*
X012096Y014361D02*
X012096Y014268D01*
X012143Y014221D01*
X012096Y014132D02*
X012330Y014132D01*
X012377Y014085D01*
X012377Y013991D01*
X012330Y013945D01*
X012096Y013945D01*
X012377Y014221D02*
X012190Y014408D01*
X012143Y014408D01*
X012096Y014361D01*
X012377Y014408D02*
X012377Y014221D01*
X018596Y014268D02*
X018596Y014361D01*
X018643Y014408D01*
X018690Y014408D01*
X018737Y014361D01*
X018783Y014408D01*
X018830Y014408D01*
X018877Y014361D01*
X018877Y014268D01*
X018830Y014221D01*
X018830Y014132D02*
X018596Y014132D01*
X018643Y014221D02*
X018596Y014268D01*
X018737Y014314D02*
X018737Y014361D01*
X018830Y014132D02*
X018877Y014085D01*
X018877Y013991D01*
X018830Y013945D01*
X018596Y013945D01*
X024596Y013945D02*
X024830Y013945D01*
X024877Y013991D01*
X024877Y014085D01*
X024830Y014132D01*
X024596Y014132D01*
X024737Y014221D02*
X024737Y014408D01*
X024877Y014361D02*
X024596Y014361D01*
X024737Y014221D01*
X024737Y009408D02*
X024830Y009408D01*
X024877Y009361D01*
X024877Y009268D01*
X024830Y009221D01*
X024830Y009132D02*
X024596Y009132D01*
X024596Y009221D02*
X024737Y009221D01*
X024690Y009314D01*
X024690Y009361D01*
X024737Y009408D01*
X024596Y009408D02*
X024596Y009221D01*
X024830Y009132D02*
X024877Y009085D01*
X024877Y008991D01*
X024830Y008945D01*
X024596Y008945D01*
X018877Y008991D02*
X018877Y009085D01*
X018830Y009132D01*
X018596Y009132D01*
X018737Y009221D02*
X018737Y009361D01*
X018783Y009408D01*
X018830Y009408D01*
X018877Y009361D01*
X018877Y009268D01*
X018830Y009221D01*
X018737Y009221D01*
X018643Y009314D01*
X018596Y009408D01*
X018596Y008945D02*
X018830Y008945D01*
X018877Y008991D01*
X012377Y008991D02*
X012377Y009085D01*
X012330Y009132D01*
X012096Y009132D01*
X012096Y009221D02*
X012096Y009408D01*
X012143Y009408D01*
X012330Y009221D01*
X012377Y009221D01*
X012377Y008991D02*
X012330Y008945D01*
X012096Y008945D01*
X005877Y008991D02*
X005877Y009085D01*
X005830Y009132D01*
X005596Y009132D01*
X005643Y009221D02*
X005596Y009268D01*
X005596Y009361D01*
X005643Y009408D01*
X005690Y009408D01*
X005737Y009361D01*
X005737Y009268D01*
X005690Y009221D01*
X005643Y009221D01*
X005737Y009268D02*
X005783Y009221D01*
X005830Y009221D01*
X005877Y009268D01*
X005877Y009361D01*
X005830Y009408D01*
X005783Y009408D01*
X005737Y009361D01*
X005877Y008991D02*
X005830Y008945D01*
X005596Y008945D01*
X005643Y004408D02*
X005596Y004361D01*
X005596Y004268D01*
X005643Y004221D01*
X005690Y004221D01*
X005737Y004268D01*
X005737Y004408D01*
X005830Y004408D02*
X005643Y004408D01*
X005830Y004408D02*
X005877Y004361D01*
X005877Y004268D01*
X005830Y004221D01*
X005830Y004132D02*
X005596Y004132D01*
X005596Y003945D02*
X005830Y003945D01*
X005877Y003991D01*
X005877Y004085D01*
X005830Y004132D01*
X012096Y004038D02*
X012190Y003945D01*
X012096Y003855D02*
X012330Y003855D01*
X012377Y003809D01*
X012377Y003715D01*
X012330Y003669D01*
X012096Y003669D01*
X012377Y003945D02*
X012377Y004132D01*
X012377Y004038D02*
X012096Y004038D01*
X012143Y004221D02*
X012096Y004268D01*
X012096Y004361D01*
X012143Y004408D01*
X012330Y004221D01*
X012377Y004268D01*
X012377Y004361D01*
X012330Y004408D01*
X012143Y004408D01*
X012143Y004221D02*
X012330Y004221D01*
X018596Y004314D02*
X018690Y004221D01*
X018596Y004314D02*
X018877Y004314D01*
X018877Y004221D02*
X018877Y004408D01*
X018877Y004132D02*
X018877Y003945D01*
X018877Y004038D02*
X018596Y004038D01*
X018690Y003945D01*
X018596Y003855D02*
X018830Y003855D01*
X018877Y003809D01*
X018877Y003715D01*
X018830Y003669D01*
X018596Y003669D01*
X024596Y003669D02*
X024830Y003669D01*
X024877Y003715D01*
X024877Y003809D01*
X024830Y003855D01*
X024596Y003855D01*
X024690Y003945D02*
X024596Y004038D01*
X024877Y004038D01*
X024877Y003945D02*
X024877Y004132D01*
X024877Y004221D02*
X024690Y004408D01*
X024643Y004408D01*
X024596Y004361D01*
X024596Y004268D01*
X024643Y004221D01*
X024877Y004221D02*
X024877Y004408D01*
X005877Y013991D02*
X005877Y014085D01*
X005830Y014132D01*
X005596Y014132D01*
X005690Y014221D02*
X005596Y014314D01*
X005877Y014314D01*
X005877Y014221D02*
X005877Y014408D01*
X005877Y013991D02*
X005830Y013945D01*
X005596Y013945D01*
D15*
X000742Y013589D02*
X000742Y013438D01*
X000667Y013363D01*
X000366Y013664D01*
X000667Y013664D01*
X000742Y013589D01*
X000366Y013664D02*
X000291Y013589D01*
X000291Y013438D01*
X000366Y013363D01*
X000667Y013363D01*
X000742Y013203D02*
X000742Y012903D01*
X000742Y013053D02*
X000291Y013053D01*
X000441Y012903D01*
X000366Y012743D02*
X000516Y012743D01*
X000592Y012668D01*
X000592Y012443D01*
X000742Y012443D02*
X000291Y012443D01*
X000291Y012668D01*
X000366Y012743D01*
X000291Y012282D02*
X000291Y012132D01*
X000291Y012207D02*
X000667Y012207D01*
X000742Y012132D01*
X000742Y012057D01*
X000667Y011982D01*
X025291Y003514D02*
X025441Y003363D01*
X025291Y003514D02*
X025742Y003514D01*
X025742Y003664D02*
X025742Y003363D01*
X025742Y003203D02*
X025742Y002903D01*
X025742Y003053D02*
X025291Y003053D01*
X025441Y002903D01*
X025366Y002743D02*
X025516Y002743D01*
X025592Y002668D01*
X025592Y002443D01*
X025742Y002443D02*
X025291Y002443D01*
X025291Y002668D01*
X025366Y002743D01*
X025291Y002282D02*
X025291Y002132D01*
X025291Y002207D02*
X025667Y002207D01*
X025742Y002132D01*
X025742Y002057D01*
X025667Y001982D01*
M02*
